Coordinates
version=1
nRows=6
nColumns=63
inDegrees=yes

Units are S.I. units (second, meters, Newtons, ...)
If the header above contains a line with 'inDegrees', this indicates whether rotational values are in degrees (yes) or radians (no).

endheader
time	pelvis_tilt	pelvis_list	pelvis_rotation	pelvis_tx	pelvis_ty	pelvis_tz	hip_flexion_r	hip_adduction_r	hip_rotation_r	knee_angle_r	knee_angle_r_beta	ankle_angle_r	subtalar_angle_r	mtp_angle_r	hip_flexion_l	hip_adduction_l	hip_rotation_l	knee_angle_l	knee_angle_l_beta	ankle_angle_l	subtalar_angle_l	mtp_angle_l	L5_S1_Flex_Ext	L5_S1_Lat_Bending	L5_S1_axial_rotation	L4_L5_Flex_Ext	L4_L5_Lat_Bending	L4_L5_axial_rotation	L3_L4_Flex_Ext	L3_L4_Lat_Bending	L3_L4_axial_rotation	L2_L3_Flex_Ext	L2_L3_Lat_Bending	L2_L3_axial_rotation	L1_L2_Flex_Ext	L1_L2_Lat_Bending	L1_L2_axial_rotation	L1_T12_Flex_Ext	L1_T12_Lat_Bending	L1_T12_axial_rotation	Abs_r3	Abs_r2	Abs_r1	Abs_t1	Abs_t2	neck_flexion	neck_bending	neck_rotation	arm_flex_r	arm_add_r	arm_rot_r	elbow_flex_r	pro_sup_r	wrist_flex_r	wrist_dev_r	arm_flex_l	arm_add_l	arm_rot_l	elbow_flex_l	pro_sup_l	wrist_flex_l	wrist_dev_l
      0.00000000	     -2.73147375	     -3.41659703	     94.85601890	      0.24260789	      0.70500808	      0.71413971	    -10.40080013	     -1.13303428	     -3.00519016	      3.43375643	      0.05993036	     27.55457688	      1.16330512	      0.00000000	     -9.79449180	      2.17498679	      1.96150357	      0.28187022	      0.00491956	     31.05503243	      3.12383789	      0.00000000	      0.19828050	     -0.10915818	     -0.11576076	      0.36822671	     -0.14518038	     -0.12299581	      0.32575503	     -0.26540720	     -0.12299581	      0.22661478	     -0.26540720	     -0.10129067	      0.18412327	     -0.22259536	     -0.09405562	      0.11329748	     -0.16908602	     -0.08682057	      1.41629775	     -1.23481918	     -0.64382663	      0.00000000	      0.00000000	     12.27812609	     -1.40215475	      1.41075827	    -54.39990944	    -81.08903764	    -42.01295057	     17.90679437	     41.90331948	      1.62763483	     -4.48916252	   -106.47448150	    -83.08934453	    -73.82245176	     15.13679540	     48.10829681	     -4.30914060	     -6.84884373
      0.02083333	     -2.62349584	     -3.16216776	     94.37758309	      0.24224045	      0.70526985	      0.71132173	    -10.87903802	     -1.05582864	     -0.51133727	      3.04760548	      0.05319075	     27.04701487	     -1.59923563	      0.00000000	    -10.36273791	      2.18289599	      4.05975205	      0.26111612	      0.00455734	     30.46017325	      0.06117005	      0.00000000	      0.20147677	     -0.09746341	     -0.07008564	      0.37416251	     -0.12962634	     -0.07446599	      0.33100618	     -0.23697255	     -0.07446599	      0.23026780	     -0.23697255	     -0.06132493	      0.18709133	     -0.19874739	     -0.05694458	      0.11512383	     -0.15097083	     -0.05256423	      1.43912841	     -1.10252564	     -0.38979529	      0.00000000	      0.00000000	     11.42413523	     -0.89999484	      0.69793780	    -49.30886438	    -84.32808170	    -20.60406343	     15.10624024	     33.72632478	      0.73113907	     -3.54068101	   -110.93833509	    -84.18779489	    -68.41595032	     12.28603944	     42.13087290	     -2.01296303	     -8.43265361
      0.04166667	     -2.51159144	     -2.95333907	     94.07201152	      0.24173625	      0.70553670	      0.70906019	    -11.18629838	     -1.01786006	     -0.18604517	      2.92662417	      0.05107923	     27.09282674	     -1.57080307	      0.00000000	    -10.80416537	      2.14786814	      4.10046956	      0.25353135	      0.00442496	     30.31506844	     -0.20825937	      0.00000000	      0.20001026	     -0.07859112	      0.02933911	      0.37143906	     -0.10452618	      0.03117281	      0.32859686	     -0.19108644	      0.03117281	      0.22859173	     -0.19108644	      0.02567173	      0.18572953	     -0.16026300	      0.02383803	      0.11428586	     -0.12173764	      0.02200434	      1.42865330	     -0.88903842	      0.16317535	      0.00000000	      0.00000000	     10.56041564	     -0.63747383	      0.09245290	    -49.77299788	    -84.92785897	    -19.86279383	     15.26236890	     34.10006648	      0.07504403	     -1.70344052	   -111.19757777	    -84.78497948	    -68.18472109	     11.79488221	     42.40292273	     -1.94239314	     -8.07275223
      0.06250000	     -2.45250550	     -2.79157962	     93.88173903	      0.24123722	      0.70584915	      0.70747281	    -11.40680329	     -1.01231044	      0.06801282	      2.86274476	      0.04996432	     27.17499114	     -1.60845652	      0.00000000	    -11.12562104	      2.14757089	      4.12982612	      0.24777383	      0.00432447	     30.15897430	     -0.41109956	      0.00000000	      0.19583331	     -0.06448688	      0.07882271	      0.36368205	     -0.08576755	      0.08374913	      0.32173455	     -0.15679341	      0.08374913	      0.22381790	     -0.15679341	      0.06896987	      0.18185082	     -0.13150165	      0.06404345	      0.11189916	     -0.09989018	      0.05911703	      1.39881778	     -0.72948852	      0.43838825	      0.00000000	      0.00000000	      9.67535608	     -0.40252922	     -0.03959260	    -49.66544056	    -85.40197753	    -19.80217021	     15.68608105	     34.02810953	     -0.26958296	     -1.28172878	   -111.33438375	    -84.92935780	    -68.08575744	     11.78474607	     42.53348019	     -1.89547410	     -8.02928565
      0.08333333	     -2.40335760	     -2.62638350	     93.77746638	      0.24094798	      0.70620078	      0.70635667	    -11.60628708	     -0.98665115	      0.29796411	      2.84937847	      0.04973104	     27.14963844	     -1.62270751	      0.00000000	    -11.39481976	      2.12594020	      4.05792711	      0.24405294	      0.00425953	     29.96417147	     -0.60428462	      0.00000000	      0.18963082	     -0.05305025	      0.10394422	      0.35216339	     -0.07055683	      0.11044073	      0.31154447	     -0.12898637	      0.11044073	      0.21672906	     -0.12898637	      0.09095119	      0.17609118	     -0.10818007	      0.08445468	      0.10835505	     -0.08217483	      0.07795816	      1.35451396	     -0.60011502	      0.57810656	      0.00000000	      0.00000000	      8.76445645	     -0.16038315	     -0.01449991	    -49.37910033	    -85.85612021	    -19.98922824	     16.21056693	     33.83071768	     -0.47064229	     -1.33997507	   -111.40719691	    -84.96522846	    -68.07351684	     11.88942144	     42.57806150	     -1.96392168	     -8.08926473
      0.10416667	     -2.40985281	     -2.54734720	     93.49863374	      0.24093897	      0.70652172	      0.70571690	    -11.72809222	     -1.05469548	      0.89404491	      2.72449645	      0.04755143	     26.95670769	     -1.93713678	      0.00000000	    -11.54069339	      2.20737006	      4.03309697	      0.23790075	      0.00415215	     29.76018975	     -1.15062213	      0.00000000	      0.18776901	     -0.04597874	      0.14614349	      0.34870584	     -0.06115172	      0.15527745	      0.30848571	     -0.11179271	      0.15527745	      0.21460121	     -0.11179271	      0.12787555	      0.17436231	     -0.09375984	      0.11874158	      0.10729122	     -0.07122107	      0.10960761	      1.34121530	     -0.52012069	      0.81280622	      0.00000000	      0.00000000	      7.88095806	      0.33132924	      0.66790002	    -48.10927613	    -85.94017985	    -21.05760973	     17.08911257	     32.88317891	     -1.22139780	     -1.95941732	   -111.61768174	    -84.67434761	    -68.12383945	     12.47659909	     42.59830794	     -2.59765391	     -8.36741720
